<svg id="visual" viewBox="0 0 900 600" width="900" height="600" xmlns="http://www.w3.org/2000/svg" xmlns:xlink="http://www.w3.org/1999/xlink" version="1.1"><path d="M0 518L11.5 520.3C23 522.7 46 527.3 69 529.7C92 532 115 532 138.2 530.2C161.3 528.3 184.7 524.7 207.8 521.2C231 517.7 254 514.3 277 510.5C300 506.7 323 502.3 346 505.2C369 508 392 518 415.2 519.7C438.3 521.3 461.7 514.7 484.8 512.8C508 511 531 514 554 514C577 514 600 511 623 510.3C646 509.7 669 511.3 692.2 510.2C715.3 509 738.7 505 761.8 507.5C785 510 808 519 831 520C854 521 877 514 888.5 510.5L900 507L900 601L888.5 601C877 601 854 601 831 601C808 601 785 601 761.8 601C738.7 601 715.3 601 692.2 601C669 601 646 601 623 601C600 601 577 601 554 601C531 601 508 601 484.8 601C461.7 601 438.3 601 415.2 601C392 601 369 601 346 601C323 601 300 601 277 601C254 601 231 601 207.8 601C184.7 601 161.3 601 138.2 601C115 601 92 601 69 601C46 601 23 601 11.5 601L0 601Z" fill="#000c34"></path><path d="M0 514L11.5 518.7C23 523.3 46 532.7 69 534C92 535.3 115 528.7 138.2 527.5C161.3 526.3 184.7 530.7 207.8 533C231 535.3 254 535.7 277 533.8C300 532 323 528 346 525.7C369 523.3 392 522.7 415.2 523C438.3 523.3 461.7 524.7 484.8 523C508 521.3 531 516.7 554 517.7C577 518.7 600 525.3 623 530.2C646 535 669 538 692.2 535.3C715.3 532.7 738.7 524.3 761.8 521.8C785 519.3 808 522.7 831 526.7C854 530.7 877 535.3 888.5 537.7L900 540L900 601L888.5 601C877 601 854 601 831 601C808 601 785 601 761.8 601C738.7 601 715.3 601 692.2 601C669 601 646 601 623 601C600 601 577 601 554 601C531 601 508 601 484.8 601C461.7 601 438.3 601 415.2 601C392 601 369 601 346 601C323 601 300 601 277 601C254 601 231 601 207.8 601C184.7 601 161.3 601 138.2 601C115 601 92 601 69 601C46 601 23 601 11.5 601L0 601Z" fill="#2a2f52"></path><path d="M0 525L11.5 529C23 533 46 541 69 544.2C92 547.3 115 545.7 138.2 542.8C161.3 540 184.7 536 207.8 537.3C231 538.7 254 545.3 277 548.5C300 551.7 323 551.3 346 547.5C369 543.7 392 536.3 415.2 535.7C438.3 535 461.7 541 484.8 540.7C508 540.3 531 533.7 554 530.2C577 526.7 600 526.3 623 527.8C646 529.3 669 532.7 692.2 537.2C715.3 541.7 738.7 547.3 761.8 547.7C785 548 808 543 831 538.8C854 534.7 877 531.3 888.5 529.7L900 528L900 601L888.5 601C877 601 854 601 831 601C808 601 785 601 761.8 601C738.7 601 715.3 601 692.2 601C669 601 646 601 623 601C600 601 577 601 554 601C531 601 508 601 484.8 601C461.7 601 438.3 601 415.2 601C392 601 369 601 346 601C323 601 300 601 277 601C254 601 231 601 207.8 601C184.7 601 161.3 601 138.2 601C115 601 92 601 69 601C46 601 23 601 11.5 601L0 601Z" fill="#525372"></path><path d="M0 544L11.5 547.2C23 550.3 46 556.7 69 556.8C92 557 115 551 138.2 551C161.3 551 184.7 557 207.8 555.7C231 554.3 254 545.7 277 543.5C300 541.3 323 545.7 346 546.5C369 547.3 392 544.7 415.2 542.7C438.3 540.7 461.7 539.3 484.8 540.2C508 541 531 544 554 544C577 544 600 541 623 541.2C646 541.3 669 544.7 692.2 547.8C715.3 551 738.7 554 761.8 554.3C785 554.7 808 552.3 831 551.3C854 550.3 877 550.7 888.5 550.8L900 551L900 601L888.5 601C877 601 854 601 831 601C808 601 785 601 761.8 601C738.7 601 715.3 601 692.2 601C669 601 646 601 623 601C600 601 577 601 554 601C531 601 508 601 484.8 601C461.7 601 438.3 601 415.2 601C392 601 369 601 346 601C323 601 300 601 277 601C254 601 231 601 207.8 601C184.7 601 161.3 601 138.2 601C115 601 92 601 69 601C46 601 23 601 11.5 601L0 601Z" fill="#7b7b94"></path><path d="M0 566L11.5 564.7C23 563.3 46 560.7 69 561.2C92 561.7 115 565.3 138.2 566C161.3 566.7 184.7 564.3 207.8 564.5C231 564.7 254 567.3 277 566C300 564.7 323 559.3 346 559.5C369 559.7 392 565.3 415.2 566.5C438.3 567.7 461.7 564.3 484.8 563.2C508 562 531 563 554 562C577 561 600 558 623 558.7C646 559.3 669 563.7 692.2 564.2C715.3 564.7 738.7 561.3 761.8 562C785 562.7 808 567.3 831 569.2C854 571 877 570 888.5 569.5L900 569L900 601L888.5 601C877 601 854 601 831 601C808 601 785 601 761.8 601C738.7 601 715.3 601 692.2 601C669 601 646 601 623 601C600 601 577 601 554 601C531 601 508 601 484.8 601C461.7 601 438.3 601 415.2 601C392 601 369 601 346 601C323 601 300 601 277 601C254 601 231 601 207.8 601C184.7 601 161.3 601 138.2 601C115 601 92 601 69 601C46 601 23 601 11.5 601L0 601Z" fill="#a5a5b7"></path><path d="M0 580L11.5 578.7C23 577.3 46 574.7 69 573.7C92 572.7 115 573.3 138.2 572C161.3 570.7 184.7 567.3 207.8 567.2C231 567 254 570 277 572C300 574 323 575 346 573.7C369 572.3 392 568.7 415.2 569C438.3 569.3 461.7 573.7 484.8 574.3C508 575 531 572 554 569.7C577 567.3 600 565.7 623 566.2C646 566.7 669 569.3 692.2 571.3C715.3 573.3 738.7 574.7 761.8 575C785 575.3 808 574.7 831 574.3C854 574 877 574 888.5 574L900 574L900 601L888.5 601C877 601 854 601 831 601C808 601 785 601 761.8 601C738.7 601 715.3 601 692.2 601C669 601 646 601 623 601C600 601 577 601 554 601C531 601 508 601 484.8 601C461.7 601 438.3 601 415.2 601C392 601 369 601 346 601C323 601 300 601 277 601C254 601 231 601 207.8 601C184.7 601 161.3 601 138.2 601C115 601 92 601 69 601C46 601 23 601 11.5 601L0 601Z" fill="#d1d1da"></path><path d="M0 583L11.5 584.3C23 585.7 46 588.3 69 587.8C92 587.3 115 583.7 138.2 583C161.3 582.3 184.7 584.7 207.8 585.2C231 585.7 254 584.3 277 584.3C300 584.3 323 585.7 346 585.5C369 585.3 392 583.7 415.2 582.8C438.3 582 461.7 582 484.8 582.7C508 583.3 531 584.7 554 585.8C577 587 600 588 623 587.2C646 586.3 669 583.7 692.2 582.2C715.3 580.7 738.7 580.3 761.8 580.5C785 580.7 808 581.3 831 581C854 580.7 877 579.3 888.5 578.7L900 578L900 601L888.5 601C877 601 854 601 831 601C808 601 785 601 761.8 601C738.7 601 715.3 601 692.2 601C669 601 646 601 623 601C600 601 577 601 554 601C531 601 508 601 484.8 601C461.7 601 438.3 601 415.2 601C392 601 369 601 346 601C323 601 300 601 277 601C254 601 231 601 207.8 601C184.7 601 161.3 601 138.2 601C115 601 92 601 69 601C46 601 23 601 11.5 601L0 601Z" fill="#ffffff"></path></svg>