<svg xmlns="http://www.w3.org/2000/svg" xmlns:xlink="http://www.w3.org/1999/xlink" id="visual" version="1.1" viewBox="0 594 960 307"><path d="M0 642L137 642L137 616L274 616L274 630L411 630L411 594L549 594L549 684L686 684L686 673L823 673L823 643L960 643L960 615L960 901L960 901L823 901L823 901L686 901L686 901L549 901L549 901L411 901L411 901L274 901L274 901L137 901L137 901L0 901Z" fill="#f04665"/><path d="M0 733L137 733L137 747L274 747L274 719L411 719L411 689L549 689L549 711L686 711L686 695L823 695L823 696L960 696L960 684L960 901L960 901L823 901L823 901L686 901L686 901L549 901L549 901L411 901L411 901L274 901L274 901L137 901L137 901L0 901Z" fill="#fc8b96"/><path d="M0 794L137 794L137 755L274 755L274 804L411 804L411 804L549 804L549 783L686 783L686 760L823 760L823 785L960 785L960 740L960 901L960 901L823 901L823 901L686 901L686 901L549 901L549 901L411 901L411 901L274 901L274 901L137 901L137 901L0 901Z" fill="#ffc6c9"/><path d="M0 791L137 791L137 826L274 826L274 847L411 847L411 824L549 824L549 849L686 849L686 850L823 850L823 852L960 852L960 818L960 901L960 901L823 901L823 901L686 901L686 901L549 901L549 901L411 901L411 901L274 901L274 901L137 901L137 901L0 901Z" fill="#ffffff"/></svg>