<svg id="visual" viewBox="0 0 960 1200" width="960" height="1200" xmlns="http://www.w3.org/2000/svg" xmlns:xlink="http://www.w3.org/1999/xlink" version="1.1"><g><g transform="translate(431 532)"><path d="M0 -184.9L160.1 -92.4L160.1 92.4L0 184.9L-160.1 92.4L-160.1 -92.4Z" fill="none" stroke="#000c34" stroke-width="13"></path></g><g transform="translate(949 541)"><path d="M0 -142L123 -71L123 71L0 142L-123 71L-123 -71Z" fill="none" stroke="#000c34" stroke-width="13"></path></g><g transform="translate(4 814)"><path d="M0 -154L133.4 -77L133.4 77L0 154L-133.4 77L-133.4 -77Z" fill="none" stroke="#000c34" stroke-width="13"></path></g><g transform="translate(599 868)"><path d="M0 -98L84.9 -49L84.9 49L0 98L-84.9 49L-84.9 -49Z" fill="none" stroke="#000c34" stroke-width="13"></path></g><g transform="translate(215 198)"><path d="M0 -119L103.1 -59.5L103.1 59.5L0 119L-103.1 59.5L-103.1 -59.5Z" fill="none" stroke="#000c34" stroke-width="13"></path></g><g transform="translate(944 71)"><path d="M0 -127L110 -63.5L110 63.5L0 127L-110 63.5L-110 -63.5Z" fill="none" stroke="#000c34" stroke-width="13"></path></g></g></svg>